<?xml version="1.0" encoding="UTF-8"?>
<svg id="_图层_1" data-name="图层 1" xmlns="http://www.w3.org/2000/svg" xmlns:xlink="http://www.w3.org/1999/xlink" viewBox="0 0 245.01 242.6">
  <defs>
    <style>
      .cls-1 {
        fill: url(#_未命名的渐变_5);
      }

      .cls-2 {
        fill: url(#_未命名的渐变_5-2);
      }

      .cls-3 {
        fill: #fbb03b;
      }
    </style>
    <linearGradient id="_未命名的渐变_5" data-name="未命名的渐变 5" x1="91.74" y1="61.15" x2="79.95" y2="149.81" gradientUnits="userSpaceOnUse">
      <stop offset="0" stop-color="#f3c73b"/>
      <stop offset=".81" stop-color="#f7931e"/>
    </linearGradient>
    <linearGradient id="_未命名的渐变_5-2" data-name="未命名的渐变 5" x1="157.95" y1="180.07" x2="144.48" y2="84.95" xlink:href="#_未命名的渐变_5"/>
  </defs>
  <path class="cls-1" d="M147.4,34.12c-10.39,10.57-20.92,21-31.39,31.5-1.34,1.34-2.68,2.68-4.02,4-6.59,6.52-13.27,12.96-19.42,19.88-17.38,19.62-10.37,50.95,13.51,61.71,5.21,2.35,7.27,3.29,6.59,5.12-.44,1.21-2.02,2.79-4.64,5.41-9.4,9.4-18.85,18.74-28.16,28.25-2.62,2.7-4.92,2.9-8,.81-19.36-13.25-31.99-31.17-37.61-53.94-4.07-16.54-3.76-32.51,.9-47.65,1.96-6.44,4.72-12.72,8.26-18.85,.64-1.14,1.32-2.28,2.04-3.41,12.92-20.58,31.55-34.05,55.3-40.23,7.16-1.85,14.41-2.31,21.47-2.66,7.89,.26,15.45,.83,22.91,2.79,5.4,1.43,6.2,3.29,2.26,7.29Z"/>
  <path class="cls-2" d="M211.95,132.96c-2.42,12.13-7.51,23.73-15.27,34.67-.09,.13-.2,.28-.29,.4-15.14,21.09-35.97,33.96-62.26,37.15-3.96,.48-7.89,1.03-11.89,.88-7.62-.31-15.23-.75-22.67-2.81-5.05-1.39-5.73-3.41-1.96-7.19,11.07-11.12,22.17-22.21,33.28-33.31,6.41-6.41,12.81-12.83,19.2-19.25,15.97-16.08,16.13-39.98,.48-56.33-4.31-4.52-9.47-7.58-15.42-9.53-2.86-.94-4-1.65-3.67-2.86,.2-.72,.94-1.63,2.2-2.9,10.46-10.54,21-20.96,31.42-31.51,2.73-2.77,5.23-3.01,8.44-.7,18.37,13.27,31.28,30.36,36.93,52.51,3.58,14.11,4.07,27.75,1.49,40.78Z"/>
  <path class="cls-3" d="M144.23,116.81c-6.37,6.13-11.6,13.4-18.63,18.85-.83,.64-1.82,1.05-2.44,1.39-1.89,.11-2.99-.81-4.04-1.67-6.66-5.4-12.1-12.04-17.93-18.26-1.47-1.58-.92-3.14,.39-4.44,6.13-6.19,12.28-12.33,18.46-18.46,1.73-1.71,3.58-1.51,5.25,.15,6.19,6.13,12.33,12.28,18.5,18.43,1.21,1.21,1.82,2.68,.44,4.02Z"/>
</svg>