<?xml version="1.0" encoding="UTF-8"?>
<svg id="_图层_1" data-name="图层 1" xmlns="http://www.w3.org/2000/svg" xmlns:xlink="http://www.w3.org/1999/xlink" viewBox="0 0 462 295">
  <defs>
    <style>
      .cls-1 {
        fill: #222221;
        font-family: Repair-Bold, Repair-Bold;
        font-size: 57.48px;
        letter-spacing: .1em;
      }

      .cls-1, .cls-2 {
        font-weight: 700;
      }

      .cls-3 {
        fill: url(#_未命名的渐变_5);
      }

      .cls-4 {
        fill: url(#_未命名的渐变_5-2);
      }

      .cls-2 {
        font-family: AlimamaShuHeiTi-Bold, 'Alimama ShuHeiTi';
        font-size: 104.29px;
      }

      .cls-5 {
        fill: #fbb03b;
      }
    </style>
    <linearGradient id="_未命名的渐变_5" data-name="未命名的渐变 5" x1="43.29" y1="80.27" x2="36.22" y2="133.5" gradientUnits="userSpaceOnUse">
      <stop offset="0" stop-color="#f3c73b"/>
      <stop offset=".81" stop-color="#f7931e"/>
    </linearGradient>
    <linearGradient id="_未命名的渐变_5-2" data-name="未命名的渐变 5" x1="83.1" y1="151.66" x2="75.02" y2="94.56" xlink:href="#_未命名的渐变_5"/>
  </defs>
  <text class="cls-1" transform="translate(20.38 236.83)"><tspan x="0" y="0">HUI LIU LUAN</tspan></text>
  <g>
    <path class="cls-3" d="M76.77,64.05c-6.25,6.35-12.58,12.6-18.87,18.91-.81,.8-1.61,1.61-2.42,2.4-3.96,3.91-7.98,7.78-11.68,11.93-10.45,11.78-6.24,30.59,8.12,37.04,3.13,1.41,4.37,1.97,3.96,3.07-.26,.73-1.21,1.67-2.79,3.25-5.65,5.64-11.34,11.25-16.93,16.96-1.58,1.62-2.96,1.74-4.81,.48-11.64-7.95-19.24-18.71-22.61-32.38-2.45-9.93-2.26-19.51,.54-28.6,1.18-3.87,2.84-7.64,4.97-11.32,.39-.68,.79-1.37,1.23-2.05,7.77-12.35,18.97-20.44,33.25-24.15,4.3-1.11,8.66-1.39,12.91-1.6,4.75,.15,9.29,.5,13.77,1.67,3.24,.86,3.73,1.97,1.36,4.37Z"/>
    <path class="cls-4" d="M115.58,123.38c-1.46,7.28-4.51,14.25-9.18,20.81-.06,.08-.12,.17-.18,.24-9.11,12.66-21.63,20.38-37.44,22.3-2.38,.29-4.75,.62-7.15,.53-4.58-.19-9.16-.45-13.63-1.69-3.04-.84-3.44-2.05-1.18-4.32,6.66-6.68,13.33-13.33,20.01-20,3.85-3.85,7.7-7.7,11.54-11.56,9.6-9.65,9.7-24,.29-33.81-2.59-2.71-5.7-4.55-9.27-5.72-1.72-.56-2.41-.99-2.21-1.72,.12-.43,.56-.98,1.32-1.74,6.29-6.32,12.63-12.58,18.9-18.92,1.64-1.66,3.15-1.81,5.08-.42,11.05,7.97,18.81,18.22,22.21,31.52,2.15,8.47,2.45,16.66,.89,24.48Z"/>
    <path class="cls-5" d="M74.86,113.69c-3.83,3.68-6.98,8.04-11.2,11.32-.5,.39-1.09,.63-1.47,.84-1.14,.07-1.8-.48-2.43-1-4.01-3.24-7.27-7.23-10.78-10.96-.88-.95-.55-1.88,.23-2.67,3.69-3.71,7.38-7.4,11.1-11.08,1.04-1.02,2.15-.9,3.16,.09,3.72,3.68,7.42,7.37,11.13,11.06,.73,.73,1.09,1.61,.26,2.41Z"/>
  </g>
  <text class="cls-2" transform="translate(135.42 156.33)"><tspan x="0" y="0">汇流链</tspan></text>
</svg>